<?xml version="1.0" standalone="no"?>
<!DOCTYPE svg PUBLIC "-//W3C//DTD SVG 20010904//EN"
 "http://www.w3.org/TR/2001/REC-SVG-20010904/DTD/svg10.dtd">
<svg version="1.0" xmlns="http://www.w3.org/2000/svg"
 width="200.000000pt" height="200.000000pt" viewBox="0 0 200.000000 200.000000"
 preserveAspectRatio="xMidYMid meet">
<metadata>
Created by potrace 1.11, written by Peter Selinger 2001-2013
</metadata>
<g transform="translate(0.000000,200.000000) scale(0.100000,-0.100000)"
fill="#000000" stroke="none">
<path d="M941 1861 c-10 -7 -7 -9 12 -8 14 1 23 5 20 10 -6 9 -15 9 -32 -2z"/>
<path d="M1090 1838 c0 -11 12 -10 30 2 12 7 10 9 -8 7 -12 0 -22 -5 -22 -9z"/>
<path d="M1030 1831 c-8 -6 -18 -7 -22 -5 -5 3 -11 -2 -14 -11 -5 -13 -9 -13
-22 -3 -13 11 -15 11 -8 -2 4 -9 1 -8 -7 3 -8 9 -18 17 -22 17 -4 0 -2 -6 4
-14 8 -10 9 -16 1 -21 -5 -3 -10 -2 -10 3 0 5 -10 12 -22 15 -21 5 -21 5 -6
-7 16 -12 16 -14 -6 -24 -17 -8 -27 -7 -36 1 -10 9 -12 8 -7 -5 7 -20 -16 -31
-33 -15 -10 9 -11 9 -6 -1 5 -8 -8 -30 -34 -58 -43 -47 -69 -96 -72 -138 -1
-14 -5 -23 -8 -21 -3 2 -5 -34 -6 -80 0 -46 3 -82 7 -79 4 2 7 -4 6 -15 -1
-14 -5 -17 -13 -10 -8 7 -15 6 -20 -2 -4 -7 -3 -9 3 -6 6 4 14 0 17 -9 3 -9
11 -12 18 -8 8 5 7 0 -2 -11 -8 -10 -10 -16 -4 -12 7 4 15 0 18 -9 8 -21 8
-24 -5 -24 -5 0 -7 4 -4 10 3 6 -1 7 -10 4 -14 -6 -14 -8 2 -19 10 -7 22 -11
26 -8 5 3 6 -4 2 -16 -3 -11 -2 -21 3 -21 5 0 9 -7 9 -15 0 -8 -3 -13 -5 -10
-7 7 -32 -15 -32 -29 0 -6 5 -3 11 6 11 20 43 12 35 -8 -3 -8 -1 -14 5 -14 6
0 7 -5 4 -10 -9 -15 -27 -1 -21 16 3 8 1 14 -3 14 -5 0 -9 -17 -9 -37 0 -21 3
-31 7 -23 12 30 37 20 32 -12 0 -5 4 -8 11 -8 6 0 8 -3 5 -7 -4 -3 -1 -13 6
-21 8 -10 8 -13 1 -9 -7 4 -15 0 -18 -9 -8 -21 -8 -24 5 -24 5 0 7 5 3 11 -4
7 -2 10 5 8 7 -3 13 -9 13 -14 0 -6 4 -16 10 -22 7 -9 6 -15 -6 -19 -9 -3 -13
-11 -9 -17 4 -6 0 -8 -11 -4 -11 4 -15 3 -11 -4 4 -6 13 -8 21 -5 8 3 14 1 14
-4 0 -6 5 -10 11 -10 8 0 7 5 -1 15 -7 9 -10 18 -6 22 8 9 15 1 19 -23 1 -10
7 -26 12 -34 17 -27 12 -51 -14 -66 -24 -14 -17 -13 27 2 14 6 15 4 5 -7 -17
-18 -16 -26 3 -33 14 -5 15 -4 4 9 -7 8 -8 15 -3 15 5 0 15 -12 21 -26 9 -19
9 -24 1 -18 -7 4 -9 3 -5 -4 3 -6 -2 -15 -11 -21 -10 -6 -13 -11 -6 -11 6 0
15 4 18 10 3 5 11 10 17 10 6 0 9 -3 5 -6 -3 -4 2 -23 13 -44 11 -21 16 -40
13 -44 -10 -10 -35 -7 -28 4 4 6 11 8 16 5 5 -3 6 1 3 10 -6 14 -8 14 -19 -2
-16 -21 -12 -29 15 -36 11 -3 18 -1 14 4 -3 5 0 9 6 9 7 0 10 -6 7 -14 -3 -7
1 -23 9 -35 8 -11 12 -21 8 -21 -3 0 -2 -6 4 -13 8 -10 6 -16 -9 -25 -20 -13
-26 -3 -8 15 8 8 7 13 -2 19 -7 4 -14 3 -17 -4 -2 -7 -7 -10 -11 -8 -4 3 -8
-1 -8 -9 0 -8 5 -12 10 -8 5 3 6 -4 2 -18 -5 -19 -4 -21 4 -9 6 8 11 13 12 10
0 -3 2 -13 4 -22 2 -13 -3 -16 -24 -13 -14 1 -35 -3 -46 -11 -10 -8 -14 -14
-9 -14 6 0 15 5 22 12 8 8 12 8 12 1 0 -6 -7 -16 -15 -23 -12 -10 -18 -10 -30
0 -20 16 -40 3 -24 -16 10 -12 14 -12 20 -2 5 7 9 8 9 2 0 -6 7 -11 15 -11 8
0 11 5 8 10 -4 6 -1 7 7 2 9 -6 11 -4 5 6 -5 8 -4 11 0 6 5 -4 16 0 26 9 11
10 19 12 24 5 3 -6 3 -11 -1 -11 -4 0 1 -7 12 -16 10 -8 14 -13 7 -10 -6 4
-16 -1 -21 -10 -9 -15 -10 -15 -17 5 -3 11 -10 19 -15 16 -5 -3 -7 -13 -4 -23
5 -13 4 -14 -4 -3 -8 11 -10 11 -15 0 -5 -12 -6 -12 -6 0 -1 10 -4 11 -15 2
-11 -9 -17 -9 -28 1 -14 13 -33 20 -55 21 -7 0 -12 3 -11 6 0 3 0 15 -2 26
l-1 20 -10 -20 c-8 -17 -9 -17 -6 7 3 18 0 25 -9 21 -7 -2 -12 -10 -10 -16 1
-7 1 -9 -1 -4 -3 4 -10 4 -15 1 -6 -4 -8 -2 -5 3 4 6 -2 18 -13 28 -11 10 -17
21 -15 25 3 4 -2 10 -10 14 -8 3 -12 12 -9 21 4 9 1 15 -7 15 -10 0 -10 3 -1
12 15 15 15 28 1 28 -5 0 -7 -4 -4 -10 3 -5 1 -10 -5 -10 -7 0 -10 6 -7 14 3
8 -1 20 -9 27 -8 7 -13 18 -10 25 3 7 0 14 -5 16 -6 2 -12 16 -12 31 -1 15 -5
27 -8 27 -4 0 -9 8 -12 19 -4 15 -13 18 -51 16 -25 -1 -49 -5 -53 -9 -5 -4 -3
-7 2 -6 22 5 27 -1 15 -15 -7 -8 -17 -12 -24 -8 -6 3 -8 2 -3 -2 4 -5 -1 -18
-10 -29 -18 -21 -18 -21 2 -4 20 17 20 16 21 -53 0 -38 -4 -69 -8 -69 -4 0 -8
-5 -8 -11 0 -5 4 -8 9 -5 5 4 11 0 14 -6 2 -7 -5 -18 -16 -24 -17 -10 -18 -12
-3 -17 11 -5 15 -3 10 5 -5 7 -3 8 5 4 7 -5 10 -14 7 -21 -3 -8 0 -15 5 -17 6
-2 11 -18 11 -35 1 -20 5 -30 12 -26 6 3 5 0 -1 -8 -15 -16 -17 -39 -3 -39 5
0 7 8 4 18 -4 11 1 9 15 -8 12 -14 24 -35 27 -47 3 -13 11 -20 17 -16 6 4 7 1
2 -7 -6 -10 -12 -7 -26 11 -9 13 -15 27 -13 31 3 4 1 8 -5 8 -5 0 -9 -9 -8
-20 1 -10 3 -17 6 -15 2 3 11 -4 19 -16 8 -11 20 -18 27 -15 7 2 29 -13 49
-35 20 -21 33 -39 29 -40 -4 -1 3 -4 17 -8 15 -5 24 -14 24 -25 -2 -13 1 -14
12 -5 17 14 19 -2 3 -18 -9 -9 -8 -11 4 -9 9 1 20 6 24 11 4 4 2 5 -6 0 -9 -5
-12 -4 -7 3 5 9 16 7 39 -5 18 -9 38 -16 45 -15 6 2 12 -1 12 -5 0 -5 19 -10
42 -10 28 -2 47 -8 56 -20 13 -16 13 -16 8 7 -7 23 -6 24 8 7 14 -18 15 -18
25 0 9 17 11 17 25 -2 15 -19 16 -19 9 -1 -4 13 -3 17 4 13 6 -4 13 -2 15 3 2
6 11 12 20 13 8 2 32 15 52 30 22 18 36 23 36 15 1 -7 8 1 17 17 19 36 31 45
52 38 14 -4 14 -3 -1 6 -15 10 -15 14 2 58 9 27 15 54 13 61 -3 6 0 12 6 12 6
0 11 -6 11 -14 0 -8 7 -17 16 -20 14 -5 15 -4 4 9 -7 8 -9 15 -4 15 4 0 -1 6
-12 14 -11 9 -20 28 -21 48 0 18 -3 47 -6 65 -2 17 -1 37 4 44 9 15 -8 52 -21
44 -5 -3 -7 4 -5 15 2 11 1 20 -3 20 -4 0 -9 11 -10 25 -1 14 -10 40 -19 58
-9 18 -16 36 -15 41 2 4 -3 15 -10 24 -11 13 -11 15 2 8 8 -4 7 -1 -3 7 -17
14 -16 15 3 20 11 3 20 11 20 19 0 10 -2 10 -9 -1 -5 -8 -16 -11 -26 -8 -9 4
-14 11 -11 16 4 5 2 11 -4 13 -5 1 -11 13 -13 25 -1 11 -9 28 -15 36 -10 12
-10 17 -1 23 7 4 20 -2 31 -16 10 -12 18 -17 18 -11 0 7 4 10 9 6 5 -3 12 -1
16 4 3 6 -3 8 -15 6 -11 -2 -22 1 -26 6 -3 6 -17 14 -30 19 -13 5 -24 14 -24
19 0 6 6 8 14 5 8 -3 17 0 22 7 4 7 3 10 -4 6 -19 -13 -43 4 -36 25 4 13 2 18
-4 14 -5 -3 -12 3 -15 14 -3 11 -1 18 4 14 8 -5 13 10 10 30 -1 5 5 6 14 2 10
-3 14 -2 10 5 -4 6 -13 8 -21 5 -8 -3 -14 -1 -14 4 0 6 -5 10 -11 10 -5 0 -7
-5 -4 -10 3 -5 1 -10 -4 -10 -12 0 -15 23 -5 33 4 3 15 2 25 -4 28 -15 23 -4
-7 16 -15 9 -23 12 -20 6 4 -6 3 -11 -2 -11 -5 0 -12 8 -14 18 -6 25 2 53 13
47 5 -4 9 -1 9 4 0 15 -13 14 -29 -1 -11 -11 -13 -10 -7 5 3 10 6 21 6 23 0 3
5 2 10 -1 16 -10 11 1 -7 16 -10 8 -14 9 -10 2 4 -6 3 -14 -2 -18 -6 -3 -8 3
-6 15 2 11 -1 20 -7 20 -6 0 -8 9 -5 20 3 11 1 22 -3 25 -5 3 -7 13 -5 23 1 9
-3 23 -9 31 -9 12 -8 13 2 7 11 -6 12 0 8 28 -3 20 -3 36 2 37 4 0 15 2 25 4
13 2 16 -1 12 -15 -3 -10 0 -22 6 -26 7 -4 9 -3 6 4 -8 12 1 42 13 42 5 0 6
-10 4 -22 -4 -21 -4 -22 5 -3 6 14 5 23 -6 32 -9 7 -11 13 -3 18 5 3 7 11 4
17 -4 6 -1 9 7 6 8 -3 13 -12 11 -22 -2 -9 2 -16 8 -16 6 0 8 5 5 10 -3 6 -1
10 4 10 6 0 11 5 11 11 0 5 -4 8 -9 4 -5 -3 -12 -1 -15 4 -3 5 1 11 9 15 21 8
38 -27 22 -44 -10 -12 -9 -12 6 0 13 10 21 10 29 2 9 -9 15 -9 25 0 7 6 17 8
20 4 4 -4 1 -11 -6 -15 -11 -7 -11 -9 0 -13 15 -5 19 -60 6 -69 -5 -3 -1 -9 9
-13 10 -4 15 -4 11 0 -4 4 -2 13 4 20 7 8 7 14 -1 19 -5 3 -10 11 -10 16 0 6
4 8 9 5 14 -9 7 18 -13 48 -16 25 -19 26 -29 11 -11 -14 -14 -14 -36 6 -18 17
-20 24 -9 31 9 7 7 8 -7 3 -16 -5 -17 -4 -8 6 10 10 16 9 29 -2 16 -12 17 -12
11 4 -4 10 -7 21 -7 23 0 3 -5 2 -12 -2 -7 -5 -8 -3 -3 6 6 10 11 9 21 -5 8
-10 20 -15 29 -11 9 3 14 2 11 -3 -8 -12 19 -33 29 -23 5 4 5 2 2 -4 -4 -7 0
-15 9 -18 8 -3 12 -11 8 -17 -3 -6 0 -15 7 -20 12 -7 12 -9 0 -9 -11 0 -11 -3
-1 -16 11 -12 11 -15 0 -12 -7 2 -15 -3 -17 -10 -3 -8 1 -10 14 -6 16 6 16 5
-1 -8 -15 -12 -20 -30 -22 -72 -2 -40 1 -54 9 -49 7 4 5 -2 -3 -12 -8 -10 -10
-16 -4 -12 7 4 19 -4 28 -18 9 -14 27 -27 41 -31 23 -6 30 -15 26 -37 -1 -5 3
-6 9 -2 6 3 8 11 4 16 -3 6 5 8 20 5 15 -3 24 -1 21 4 -3 5 4 11 15 15 46 15
87 173 58 228 -11 22 1 22 17 1 11 -15 12 -15 12 0 0 8 -9 18 -19 22 -10 3
-16 9 -13 14 3 5 1 11 -5 15 -5 3 -10 13 -10 21 0 8 4 12 10 9 6 -3 7 1 4 9
-4 10 -1 16 7 16 7 0 9 3 6 6 -4 4 -13 1 -22 -6 -13 -10 -15 -9 -15 7 0 10 -6
25 -12 32 -11 11 -10 13 4 8 9 -3 19 0 21 7 4 9 -2 11 -20 8 -18 -3 -24 -1
-19 7 4 6 4 11 -1 11 -4 0 -21 16 -36 35 -25 31 -27 38 -15 53 11 15 10 15 -8
-1 -18 -15 -23 -15 -32 -4 -7 8 -9 16 -6 20 3 3 -4 3 -17 0 -15 -4 -20 -2 -15
5 4 6 -1 11 -11 11 -38 1 -53 5 -53 12 0 5 -7 6 -15 3 -8 -4 -27 1 -41 11 -14
9 -28 14 -32 11 -3 -3 0 -6 6 -6 7 0 12 -5 12 -10 0 -7 -7 -7 -20 0 -11 6 -18
15 -15 21 8 11 4 11 -15 0z m23 -246 c-5 -14 -17 -19 -35 -16 -5 0 -9 -3 -9
-9 -2 -11 -5 -25 -9 -37 -1 -5 -2 -11 -1 -15 0 -4 -9 -5 -21 -3 -24 5 -37 15
-19 15 7 0 9 5 6 10 -4 6 -1 9 6 8 7 -2 13 3 14 10 0 15 26 33 36 26 4 -2 10
0 14 6 3 5 0 10 -7 10 -10 0 -9 3 2 9 18 12 31 5 23 -14z m-18 -445 c3 -5 -1
-10 -10 -10 -9 0 -13 5 -10 10 3 6 8 10 10 10 2 0 7 -4 10 -10z m170 -510 c3
-5 1 -10 -4 -10 -6 0 -11 5 -11 10 0 6 2 10 4 10 3 0 8 -4 11 -10z m-224 -67
c10 -11 10 -14 2 -9 -7 4 -13 2 -13 -3 0 -6 -4 -11 -9 -11 -7 0 -8 17 -2 38 2
6 10 1 22 -15z m-51 -37 c0 -2 -7 -9 -15 -16 -13 -11 -14 -10 -9 4 5 14 24 23
24 12z m44 -12 c9 -24 2 -26 -12 -4 -7 11 -8 20 -3 20 5 0 12 -7 15 -16z"/>
<path d="M979 1523 c-13 -16 -12 -17 4 -4 9 7 17 15 17 17 0 8 -8 3 -21 -13z"/>
<path d="M1120 1820 c-9 -6 -10 -10 -3 -10 6 0 15 5 18 10 8 12 4 12 -15 0z"/>
<path d="M1150 1820 c0 -5 5 -10 10 -10 6 0 10 5 10 10 0 6 -4 10 -10 10 -5 0
-10 -4 -10 -10z"/>
<path d="M867 1799 c7 -7 15 -10 18 -7 3 3 -2 9 -12 12 -14 6 -15 5 -6 -5z"/>
<path d="M1230 1798 c0 -4 7 -8 15 -8 8 0 15 4 15 8 0 5 -7 9 -15 9 -8 0 -15
-4 -15 -9z"/>
<path d="M1316 1793 c-6 -14 -5 -15 5 -6 7 7 10 15 7 18 -3 3 -9 -2 -12 -12z"/>
<path d="M776 1775 c-9 -26 -7 -32 5 -12 6 10 9 21 6 23 -2 3 -7 -2 -11 -11z"/>
<path d="M826 1777 c3 -10 9 -15 12 -12 3 3 0 11 -7 18 -10 9 -11 8 -5 -6z"/>
<path d="M790 1739 c0 -5 5 -7 10 -4 6 3 10 8 10 11 0 2 -4 4 -10 4 -5 0 -10
-5 -10 -11z"/>
<path d="M1295 1740 c-3 -5 -1 -10 4 -10 6 0 11 5 11 10 0 6 -2 10 -4 10 -3 0
-8 -4 -11 -10z"/>
<path d="M737 1733 c-10 -9 -9 -23 1 -23 5 0 9 7 9 15 0 17 -1 18 -10 8z"/>
<path d="M771 1728 c-1 -9 -9 -22 -18 -27 -10 -6 -13 -11 -7 -11 17 0 37 27
31 42 -4 8 -6 7 -6 -4z"/>
<path d="M1316 1721 c-4 -5 -2 -12 3 -15 5 -4 12 -2 15 3 4 5 2 12 -3 15 -5 4
-12 2 -15 -3z"/>
<path d="M1350 1719 c0 -5 5 -7 10 -4 6 3 10 8 10 11 0 2 -4 4 -10 4 -5 0 -10
-5 -10 -11z"/>
<path d="M710 1696 c0 -2 8 -10 18 -17 15 -13 16 -12 3 4 -13 16 -21 21 -21
13z"/>
<path d="M707 1655 c3 -8 9 -12 14 -9 12 7 11 11 -5 17 -10 4 -13 1 -9 -8z"/>
<path d="M1391 1632 c-7 -13 -6 -19 2 -19 7 0 13 9 13 19 0 10 -1 18 -3 18 -1
0 -7 -8 -12 -18z"/>
<path d="M677 1569 c7 -7 15 -10 18 -7 3 3 -2 9 -12 12 -14 6 -15 5 -6 -5z"/>
<path d="M1115 1569 c-4 -5 -11 -7 -16 -4 -5 4 -9 2 -9 -3 0 -15 29 -22 36
-10 5 8 17 1 34 -20 22 -26 26 -28 26 -12 0 11 -8 23 -18 26 -10 3 -18 9 -18
14 0 12 -29 20 -35 9z"/>
<path d="M1403 1532 c17 -18 51 -27 41 -10 -3 5 -10 6 -15 3 -5 -4 -12 1 -15
9 -3 9 -11 16 -17 16 -5 0 -3 -8 6 -18z"/>
<path d="M670 1520 c0 -5 5 -10 11 -10 5 0 7 5 4 10 -3 6 -8 10 -11 10 -2 0
-4 -4 -4 -10z"/>
<path d="M1079 1508 c-6 -18 -3 -46 3 -42 5 4 7 13 4 21 -5 11 -2 13 9 9 9 -3
13 -2 10 4 -5 9 -24 14 -26 8z"/>
<path d="M959 1485 c-5 -19 -3 -31 5 -37 6 -4 4 -14 -4 -25 -13 -17 -13 -17 4
-2 14 13 16 21 7 37 -6 10 -7 22 -4 26 3 3 3 6 0 6 -4 0 -8 -2 -8 -5z"/>
<path d="M646 1458 c3 -5 10 -6 15 -3 13 9 11 12 -6 12 -8 0 -12 -4 -9 -9z"/>
<path d="M1110 1466 c0 -2 7 -7 16 -10 8 -3 12 -2 9 4 -6 10 -25 14 -25 6z"/>
<path d="M670 1439 c0 -5 5 -7 10 -4 6 3 10 8 10 11 0 2 -4 4 -10 4 -5 0 -10
-5 -10 -11z"/>
<path d="M650 1420 c0 -5 5 -10 11 -10 5 0 7 5 4 10 -3 6 -8 10 -11 10 -2 0
-4 -4 -4 -10z"/>
<path d="M1450 1419 c0 -5 5 -7 10 -4 6 3 10 8 10 11 0 2 -4 4 -10 4 -5 0 -10
-5 -10 -11z"/>
<path d="M960 1400 c-10 -6 -11 -10 -2 -10 6 0 12 -5 12 -11 0 -5 -5 -7 -12
-3 -7 4 -8 3 -4 -4 4 -6 13 -9 22 -5 11 4 12 9 3 19 -14 17 2 18 21 2 12 -11
12 -10 1 5 -15 20 -20 20 -41 7z"/>
<path d="M1141 1394 c0 -11 3 -14 6 -6 3 7 2 16 -1 19 -3 4 -6 -2 -5 -13z"/>
<path d="M1070 1379 c0 -5 5 -7 10 -4 6 3 10 8 10 11 0 2 -4 4 -10 4 -5 0 -10
-5 -10 -11z"/>
<path d="M1433 1367 c-1 -11 -1 -18 0 -16 2 2 8 11 15 20 9 12 9 16 -1 16 -7
0 -14 -9 -14 -20z"/>
<path d="M1153 1355 c0 -8 4 -12 9 -9 5 3 6 10 3 15 -9 13 -12 11 -12 -6z"/>
<path d="M1410 1356 c0 -8 4 -17 9 -20 5 -4 7 3 4 14 -6 23 -13 26 -13 6z"/>
<path d="M967 1343 c-2 -5 10 -19 27 -32 l31 -25 -23 25 c-12 14 -19 29 -15
32 3 4 1 7 -5 7 -6 0 -13 -3 -15 -7z"/>
<path d="M674 1322 c0 -9 -5 -16 -12 -14 -8 1 -11 -2 -7 -7 3 -6 12 -8 20 -4
17 6 20 29 6 37 -5 3 -8 -2 -7 -12z"/>
<path d="M1397 1315 c-4 -8 -3 -16 1 -19 4 -3 9 4 9 15 2 23 -3 25 -10 4z"/>
<path d="M1055 1300 c-3 -5 -1 -10 4 -10 6 0 11 5 11 10 0 6 -2 10 -4 10 -3 0
-8 -4 -11 -10z"/>
<path d="M670 1266 c0 -2 9 -6 20 -9 11 -3 18 -1 14 4 -5 9 -34 13 -34 5z"/>
<path d="M1376 1262 c-3 -5 1 -9 9 -9 8 0 12 4 9 9 -3 4 -7 8 -9 8 -2 0 -6 -4
-9 -8z"/>
<path d="M1413 1255 c0 -8 4 -12 9 -9 5 3 6 10 3 15 -9 13 -12 11 -12 -6z"/>
<path d="M1024 1230 c0 -9 6 -17 13 -17 7 0 11 3 8 5 -3 3 -1 10 5 16 6 8 3
12 -8 12 -10 0 -18 -8 -18 -16z"/>
<path d="M1195 1240 c-3 -5 3 -7 12 -5 10 1 25 -2 33 -8 12 -9 13 -9 3 3 -15
16 -41 22 -48 10z"/>
<path d="M708 1233 c6 -2 9 -10 6 -15 -4 -7 -2 -8 5 -4 13 9 5 26 -12 25 -9 0
-8 -2 1 -6z"/>
<path d="M995 1230 c-3 -5 -1 -10 4 -10 6 0 11 5 11 10 0 6 -2 10 -4 10 -3 0
-8 -4 -11 -10z"/>
<path d="M675 1221 c-3 -5 -2 -12 3 -15 5 -3 9 1 9 9 0 17 -3 19 -12 6z"/>
<path d="M1055 1200 c-2 -3 5 -6 15 -7 11 -1 22 2 24 5 3 4 -4 8 -15 8 -11 0
-22 -3 -24 -6z"/>
<path d="M1055 1119 c-4 -6 -5 -12 -2 -15 2 -3 7 2 10 11 7 17 1 20 -8 4z"/>
<path d="M756 1111 c-4 -5 -2 -20 3 -33 9 -21 9 -20 8 9 -2 36 -3 38 -11 24z"/>
<path d="M1070 1106 c0 -2 7 -7 16 -10 8 -3 12 -2 9 4 -6 10 -25 14 -25 6z"/>
<path d="M730 1080 c0 -5 5 -10 11 -10 5 0 7 5 4 10 -3 6 -8 10 -11 10 -2 0
-4 -4 -4 -10z"/>
<path d="M1055 1060 c3 -5 8 -10 11 -10 2 0 4 5 4 10 0 6 -5 10 -11 10 -5 0
-7 -4 -4 -10z"/>
<path d="M1080 1066 c0 -2 7 -7 16 -10 8 -3 12 -2 9 4 -6 10 -25 14 -25 6z"/>
<path d="M753 1015 c0 -8 4 -12 9 -9 5 3 6 10 3 15 -9 13 -12 11 -12 -6z"/>
<path d="M1096 1018 c3 -4 11 -5 19 -1 21 7 19 12 -4 10 -11 0 -18 -5 -15 -9z"/>
<path d="M779 1003 c-12 -16 -12 -17 2 -6 9 7 20 9 24 5 5 -4 5 -1 1 6 -9 16
-11 15 -27 -5z"/>
<path d="M1070 986 c0 -2 8 -10 18 -17 15 -13 16 -12 3 4 -13 16 -21 21 -21
13z"/>
<path d="M786 942 c-3 -4 4 -9 15 -9 23 -2 25 3 4 10 -8 4 -16 3 -19 -1z"/>
<path d="M1137 935 c-4 -8 -3 -16 1 -19 4 -3 9 4 9 15 2 23 -3 25 -10 4z"/>
<path d="M820 920 c-12 -7 -10 -9 7 -7 12 0 19 5 17 9 -6 10 -6 10 -24 -2z"/>
<path d="M1115 900 c-3 -5 -1 -10 4 -10 6 0 11 5 11 10 0 6 -2 10 -4 10 -3 0
-8 -4 -11 -10z"/>
<path d="M1150 860 c0 -5 5 -10 11 -10 5 0 7 5 4 10 -3 6 -8 10 -11 10 -2 0
-4 -4 -4 -10z"/>
<path d="M1150 830 c0 -5 5 -10 11 -10 5 0 7 5 4 10 -3 6 -8 10 -11 10 -2 0
-4 -4 -4 -10z"/>
<path d="M844 808 c3 -15 26 -23 26 -8 0 6 -4 9 -9 6 -5 -4 -12 -1 -14 4 -3 6
-4 5 -3 -2z"/>
<path d="M790 799 c0 -5 5 -7 10 -4 6 3 10 8 10 11 0 2 -4 4 -10 4 -5 0 -10
-5 -10 -11z"/>
<path d="M1152 798 c2 -6 10 -13 16 -14 7 -1 8 0 2 3 -5 2 -8 9 -4 14 3 5 0 9
-6 9 -7 0 -10 -5 -8 -12z"/>
<path d="M1187 799 c7 -7 15 -10 18 -7 3 3 -2 9 -12 12 -14 6 -15 5 -6 -5z"/>
<path d="M673 755 c0 -8 4 -12 9 -9 5 3 6 10 3 15 -9 13 -12 11 -12 -6z"/>
<path d="M870 749 c-21 -17 -22 -19 -3 -10 28 14 36 14 27 -1 -4 -7 -3 -8 4
-4 6 4 9 13 5 21 -6 18 -3 19 -33 -6z"/>
<path d="M1170 759 c0 -5 5 -7 10 -4 6 3 10 8 10 11 0 2 -4 4 -10 4 -5 0 -10
-5 -10 -11z"/>
<path d="M620 746 c0 -2 7 -6 15 -10 8 -3 15 -1 15 4 0 6 -7 10 -15 10 -8 0
-15 -2 -15 -4z"/>
<path d="M1189 746 c0 -1 -2 -9 -4 -19 -3 -18 -3 -18 16 -1 10 9 19 18 19 19
0 2 -29 3 -31 1z"/>
<path d="M665 719 c-3 -4 2 -6 10 -5 21 3 28 13 10 13 -9 0 -18 -4 -20 -8z"/>
<path d="M873 715 c0 -8 4 -12 9 -9 5 3 6 10 3 15 -9 13 -12 11 -12 -6z"/>
<path d="M635 700 c3 -5 8 -10 11 -10 2 0 4 5 4 10 0 6 -5 10 -11 10 -5 0 -7
-4 -4 -10z"/>
<path d="M720 695 c-7 -9 -11 -17 -9 -20 3 -2 10 5 17 15 14 24 10 26 -8 5z"/>
<path d="M1199 708 c-8 -27 -5 -36 9 -30 10 4 12 7 4 10 -7 2 -10 8 -6 13 3 5
3 9 0 9 -3 0 -6 -1 -7 -2z"/>
<path d="M660 686 c0 -2 9 -6 20 -9 11 -3 18 -1 14 4 -5 9 -34 13 -34 5z"/>
<path d="M429 663 c-13 -16 -12 -17 4 -4 9 7 17 15 17 17 0 8 -8 3 -21 -13z"/>
<path d="M1230 671 c0 -7 -5 -9 -12 -5 -7 5 -8 3 -3 -5 5 -9 10 -10 18 -2 6 6
8 14 4 18 -4 3 -7 1 -7 -6z"/>
<path d="M676 643 c-6 -14 -5 -15 5 -6 7 7 10 15 7 18 -3 3 -9 -2 -12 -12z"/>
<path d="M715 651 c-3 -5 -2 -12 3 -15 5 -3 9 1 9 9 0 17 -3 19 -12 6z"/>
<path d="M923 653 c4 -3 1 -13 -6 -22 -10 -14 -10 -14 4 -4 12 10 18 10 29 0
8 -6 6 -2 -4 11 -11 12 -21 22 -24 22 -3 0 -2 -3 1 -7z"/>
<path d="M450 635 c0 -8 2 -15 4 -15 2 0 6 7 10 15 3 8 1 15 -4 15 -6 0 -10
-7 -10 -15z"/>
<path d="M1235 640 c-3 -5 -1 -10 4 -10 6 0 11 5 11 10 0 6 -2 10 -4 10 -3 0
-8 -4 -11 -10z"/>
<path d="M680 615 c-11 -13 -10 -14 3 -9 11 4 15 0 13 -12 -4 -26 25 -56 41
-42 7 6 13 15 13 21 0 6 -7 2 -16 -9 -15 -19 -15 -19 -9 2 3 13 -1 26 -10 34
-8 7 -12 16 -9 21 9 15 -13 10 -26 -6z m38 -40 c-3 -3 -9 2 -12 12 -6 14 -5
15 5 6 7 -7 10 -15 7 -18z"/>
<path d="M450 600 c0 -5 5 -10 11 -10 5 0 7 5 4 10 -3 6 -8 10 -11 10 -2 0 -4
-4 -4 -10z"/>
<path d="M736 598 c3 -5 10 -6 15 -3 13 9 11 12 -6 12 -8 0 -12 -4 -9 -9z"/>
<path d="M1221 594 c0 -11 3 -14 6 -6 3 7 2 16 -1 19 -3 4 -6 -2 -5 -13z"/>
<path d="M775 559 c-4 -6 -5 -12 -2 -15 2 -3 7 2 10 11 7 17 1 20 -8 4z"/>
<path d="M890 560 c0 -5 5 -10 10 -10 6 0 10 5 10 10 0 6 -4 10 -10 10 -5 0
-10 -4 -10 -10z"/>
<path d="M1226 554 c-4 -9 -4 -19 -1 -22 3 -3 5 0 5 8 0 10 4 10 18 -1 15 -12
16 -12 5 2 -7 9 -10 19 -6 22 3 4 2 7 -4 7 -6 0 -14 -7 -17 -16z"/>
<path d="M826 537 c3 -10 9 -15 12 -12 3 3 0 11 -7 18 -10 9 -11 8 -5 -6z"/>
<path d="M478 523 c7 -3 16 -2 19 1 4 3 -2 6 -13 5 -11 0 -14 -3 -6 -6z"/>
<path d="M806 514 c-3 -8 -10 -12 -16 -9 -5 3 -10 4 -10 1 0 -3 8 -10 18 -15
14 -7 17 -5 18 15 2 28 -1 31 -10 8z"/>
<path d="M1228 513 c7 -3 16 -2 19 1 4 3 -2 6 -13 5 -11 0 -14 -3 -6 -6z"/>
<path d="M455 500 c3 -5 8 -10 11 -10 2 0 4 5 4 10 0 6 -5 10 -11 10 -5 0 -7
-4 -4 -10z"/>
<path d="M926 502 c-2 -4 -1 -14 4 -22 7 -11 9 -9 7 8 -1 24 -3 26 -11 14z"/>
<path d="M1256 493 c-6 -14 -5 -15 5 -6 7 7 10 15 7 18 -3 3 -9 -2 -12 -12z"/>
<path d="M1226 491 c-3 -5 2 -15 12 -22 15 -12 16 -12 5 2 -7 9 -10 19 -6 22
3 4 4 7 0 7 -3 0 -8 -4 -11 -9z"/>
<path d="M1260 466 c0 -2 8 -10 18 -17 15 -13 16 -12 3 4 -13 16 -21 21 -21
13z"/>
<path d="M1216 394 c-8 -20 -8 -24 2 -24 4 0 8 9 9 20 2 24 -3 26 -11 4z"/>
<path d="M1200 356 c0 -2 7 -7 16 -10 8 -3 12 -2 9 4 -6 10 -25 14 -25 6z"/>
<path d="M603 334 c9 -11 15 -24 12 -27 -3 -4 -2 -5 2 -2 3 3 12 -3 20 -13 13
-16 13 -15 4 3 -5 11 -20 29 -33 40 l-23 20 18 -21z"/>
<path d="M573 327 c0 -8 6 -14 14 -14 9 0 10 4 2 14 -6 7 -12 13 -14 13 -1 0
-2 -6 -2 -13z"/>
<path d="M599 273 c-12 -16 -12 -17 2 -6 9 7 20 9 24 5 5 -4 5 -1 1 6 -9 16
-11 15 -27 -5z"/>
<path d="M678 237 c-3 -14 0 -24 7 -24 7 0 10 10 7 24 -2 13 -6 23 -7 23 -1 0
-5 -10 -7 -23z"/>
<path d="M1151 244 c0 -11 3 -14 6 -6 3 7 2 16 -1 19 -3 4 -6 -2 -5 -13z"/>
<path d="M1105 239 c-4 -6 -5 -12 -2 -15 2 -3 7 2 10 11 7 17 1 20 -8 4z"/>
<path d="M1075 220 c-3 -5 -1 -10 4 -10 6 0 11 5 11 10 0 6 -2 10 -4 10 -3 0
-8 -4 -11 -10z"/>
<path d="M757 213 c-12 -12 -7 -31 9 -37 14 -5 15 -4 5 8 -7 8 -10 20 -6 26 7
11 2 14 -8 3z"/>
<path d="M1030 187 c-10 -19 -9 -20 2 -6 7 9 19 14 26 12 17 -6 15 4 -3 11 -9
3 -19 -3 -25 -17z"/>
<path d="M816 177 c3 -10 9 -15 12 -12 3 3 0 11 -7 18 -10 9 -11 8 -5 -6z"/>
<path d="M855 180 c3 -5 8 -10 11 -10 2 0 4 5 4 10 0 6 -5 10 -11 10 -5 0 -7
-4 -4 -10z"/>
<path d="M1090 179 c0 -5 5 -7 10 -4 6 3 10 8 10 11 0 2 -4 4 -10 4 -5 0 -10
-5 -10 -11z"/>
<path d="M887 163 c3 -7 6 -13 8 -13 2 0 5 6 8 13 3 8 -1 14 -8 14 -7 0 -11
-6 -8 -14z"/>
<path d="M836 153 c-6 -14 -5 -15 5 -6 7 7 10 15 7 18 -3 3 -9 -2 -12 -12z"/>
<path d="M966 162 c-3 -5 1 -9 9 -9 8 0 15 4 15 9 0 4 -4 8 -9 8 -6 0 -12 -4
-15 -8z"/>
<path d="M913 145 c0 -8 4 -12 9 -9 5 3 6 10 3 15 -9 13 -12 11 -12 -6z"/>
</g>
</svg>
